<?xml version="1.0" encoding="UTF-8"?>
<svg width="43px" height="28px" viewBox="0 0 43 28" version="1.1" xmlns="http://www.w3.org/2000/svg" xmlns:xlink="http://www.w3.org/1999/xlink">
    <!-- Generator: Sketch 50 (54983) - http://www.bohemiancoding.com/sketch -->
    <title>Combined Shape</title>
    <desc>Created with Sketch.</desc>
    <defs></defs>
    <g id="Style-Guide" stroke="none" stroke-width="1" fill="none" fill-rule="evenodd">
        <g transform="translate(-1378.000000, -1776.000000)" fill="#FFFFFF" id="Group-3">
            <g transform="translate(1378.000000, 1776.000000)">
                <path d="M29.9948754,17.9462769 L3.4123269,17.9462769 C1.52775079,17.9462769 2.3079401e-16,16.4185262 0,14.5339501 C-2.3079401e-16,12.6493739 1.52775079,11.1216232 3.4123269,11.1216232 L30.1584569,11.1216232 L24.3422174,6.24121878 C22.8985484,5.02983661 22.7102427,2.87749233 23.9216248,1.43382328 C25.133007,-0.00984577634 27.2853513,-0.198151501 28.7290203,1.01323067 L40.4919936,10.8835372 C40.7992113,11.1413234 41.0495794,11.4417214 41.2417073,11.7688338 C42.0974551,12.3888547 42.6540862,13.3963983 42.6540862,14.5339501 C42.6540862,15.1099486 42.5113718,15.6526143 42.2593742,16.1285161 C42.0551559,16.579073 41.7493333,16.9920684 41.3450753,17.3312812 L29.5821021,27.2015877 C28.138433,28.4129699 25.9860887,28.2246642 24.7747065,26.7809951 C23.5633244,25.3373261 23.7516301,23.1849818 25.1952992,21.9735996 L29.9948754,17.9462769 Z" id="Combined-Shape"></path>
            </g>
        </g>
    </g>
</svg>