<?xml version="1.0" encoding="UTF-8"?>
<svg width="13px" height="13px" viewBox="0 0 13 13" version="1.1" xmlns="http://www.w3.org/2000/svg" xmlns:xlink="http://www.w3.org/1999/xlink">
    <!-- Generator: Sketch 49.3 (51167) - http://www.bohemiancoding.com/sketch -->
    <title></title>
    <desc>Created with Sketch.</desc>
    <defs></defs>
    <g id="Page-1" stroke="none" stroke-width="1" fill="none" fill-rule="evenodd">
        <g id="FontAwesome-4.3" transform="translate(-40.000000, -3149.000000)" fill="#000000">
            <path d="M48.8281,3160.21875 C48.6093489,3158.96354 48.2447692,3157.66667 47.73435,3156.32812 L47.718725,3156.32812 L47.7031,3156.33594 C47.6197662,3156.36719 47.5077882,3156.41016 47.3671625,3156.46484 C47.2265368,3156.51953 46.9635186,3156.64713 46.5781,3156.84766 C46.1926814,3157.04818 45.8359141,3157.26172 45.5077875,3157.48828 C45.1796609,3157.71484 44.8385184,3158.01302 44.48435,3158.38281 C44.1301816,3158.75261 43.8619551,3159.13802 43.6796625,3159.53906 L43.562475,3159.45312 C44.5208131,3160.23438 45.6093439,3160.625 46.8281,3160.625 C47.5156034,3160.625 48.1822634,3160.48958 48.8281,3160.21875 Z M47.3827875,3155.47656 C47.273412,3155.22135 47.1353925,3154.93229 46.968725,3154.60938 C45.3489252,3155.09375 43.5963386,3155.33594 41.7109125,3155.33594 C41.7057041,3155.3724 41.7031,3155.42708 41.7031,3155.5 C41.7031,3156.14584 41.8176822,3156.76172 42.04685,3157.34766 C42.2760178,3157.9336 42.5989312,3158.45833 43.0156,3158.92188 C43.276018,3158.45833 43.5976293,3158.02474 43.9804437,3157.62109 C44.3632582,3157.21745 44.7343482,3156.89323 45.093725,3156.64844 C45.4531018,3156.40364 45.7929421,3156.19271 46.1132562,3156.01562 C46.4335704,3155.83854 46.6926823,3155.71354 46.8906,3155.64062 L47.1796625,3155.53906 C47.2004959,3155.53385 47.2343498,3155.52474 47.281225,3155.51172 C47.3281002,3155.4987 47.3619541,3155.48698 47.3827875,3155.47656 Z M46.54685,3153.82031 C45.9218469,3152.71093 45.2864366,3151.72657 44.6406,3150.86719 C43.9218464,3151.20573 43.3124775,3151.6901 42.812475,3152.32031 C42.3124725,3152.95052 41.9791425,3153.65885 41.812475,3154.44531 C43.3853995,3154.44531 44.9635087,3154.23698 46.54685,3153.82031 Z M51.8906,3156.3125 C50.7968445,3156 49.731751,3155.92448 48.6952875,3156.08594 C49.1484148,3157.33074 49.4817448,3158.55208 49.6952875,3159.75 C50.2734154,3159.35937 50.7551814,3158.86589 51.1406,3158.26953 C51.5260186,3157.67317 51.7760161,3157.02084 51.8906,3156.3125 Z M50.2109125,3151.65625 C49.247366,3150.80208 48.1197731,3150.375 46.8281,3150.375 C46.4322647,3150.375 46.0286229,3150.42448 45.6171625,3150.52344 C46.2994576,3151.40886 46.9400762,3152.40364 47.5390375,3153.50781 C47.8984143,3153.3724 48.2369526,3153.21484 48.5546625,3153.03516 C48.8723724,3152.85547 49.123672,3152.69531 49.3085687,3152.55469 C49.4934655,3152.41406 49.6640367,3152.26563 49.8202875,3152.10938 C49.9765383,3151.95312 50.0741936,3151.84766 50.1132562,3151.79297 L50.2109125,3151.65625 Z M51.9531,3155.44531 C51.9374749,3154.23697 51.549458,3153.16928 50.7890375,3152.24219 L50.781225,3152.25 C50.7343498,3152.3125 50.6848711,3152.3763 50.6327875,3152.44141 C50.5807039,3152.50651 50.4674238,3152.62239 50.2929437,3152.78906 C50.1184637,3152.95573 49.9335697,3153.11328 49.7382562,3153.26172 C49.5429428,3153.41016 49.2825287,3153.57943 48.9570062,3153.76953 C48.6314838,3153.95964 48.2890393,3154.1276 47.9296625,3154.27344 C48.0598715,3154.54948 48.1744537,3154.79687 48.2734125,3155.01562 C48.2838292,3155.04167 48.3007561,3155.08594 48.3241937,3155.14844 C48.3476314,3155.21094 48.3671624,3155.25521 48.3827875,3155.28125 C48.5702884,3155.25521 48.7642969,3155.23698 48.9648187,3155.22656 C49.1653406,3155.21615 49.3567449,3155.21094 49.5390375,3155.21094 C49.7213301,3155.21094 49.9010158,3155.21484 50.0781,3155.22266 C50.2551842,3155.23047 50.4218492,3155.24089 50.5781,3155.25391 C50.7343508,3155.26693 50.8814847,3155.28125 51.0195062,3155.29688 C51.1575278,3155.3125 51.2825265,3155.32943 51.3945062,3155.34766 C51.506486,3155.36589 51.6015371,3155.38151 51.6796625,3155.39453 C51.7577879,3155.40755 51.8228914,3155.41927 51.874975,3155.42969 L51.9531,3155.44531 Z M52.0234125,3152.49219 C52.5598735,3153.40886 52.8281,3154.41145 52.8281,3155.5 C52.8281,3156.58855 52.5598735,3157.59244 52.0234125,3158.51172 C51.4869515,3159.43099 50.7590942,3160.15885 49.8398187,3160.69531 C48.9205433,3161.23177 47.9166471,3161.5 46.8281,3161.5 C45.7395529,3161.5 44.7356567,3161.23177 43.8163812,3160.69531 C42.8971058,3160.15885 42.1692485,3159.43099 41.6327875,3158.51172 C41.0963265,3157.59244 40.8281,3156.58855 40.8281,3155.5 C40.8281,3154.41145 41.0963265,3153.40756 41.6327875,3152.48828 C42.1692485,3151.56901 42.8971058,3150.84115 43.8163812,3150.30469 C44.7356567,3149.76823 45.7395529,3149.5 46.8281,3149.5 C47.9166471,3149.5 48.9205433,3149.76823 49.8398187,3150.30469 C50.7590942,3150.84115 51.4869515,3151.57031 52.0234125,3152.49219 Z" id=""></path>
        </g>
    </g>
</svg>