<svg width="13" height="13" viewBox="0 0 13 13" xmlns="http://www.w3.org/2000/svg"><title></title><path d="M8.828 11.219a21.114 21.114 0 0 0-1.094-3.89H7.72l-.016.007-.336.129a9.91 9.91 0 0 0-.789.383c-.385.2-.742.414-1.07.64a6.78 6.78 0 0 0-1.024.895c-.354.37-.622.755-.804 1.156l-.118-.086c.959.781 2.047 1.172 3.266 1.172.688 0 1.354-.135 2-.406zM7.383 6.477c-.11-.256-.248-.545-.414-.868-1.62.485-3.373.727-5.258.727a1.262 1.262 0 0 0-.008.164c0 .646.115 1.262.344 1.848.229.586.552 1.11.969 1.574a6.55 6.55 0 0 1 .964-1.3 6.984 6.984 0 0 1 1.114-.974c.36-.244.699-.455 1.02-.632.32-.177.579-.302.777-.375l.289-.102.101-.027a.616.616 0 0 0 .102-.035zM6.547 4.82A26.882 26.882 0 0 0 4.64 1.867 5.056 5.056 0 0 0 2.812 3.32c-.5.63-.833 1.339-1 2.125 1.573 0 3.152-.208 4.735-.625zm5.344 2.492C10.797 7 9.73 6.925 8.695 7.087a22.009 22.009 0 0 1 1 3.664 5.12 5.12 0 0 0 1.446-1.48 5.052 5.052 0 0 0 .75-1.957zm-1.68-4.656a4.938 4.938 0 0 0-3.383-1.281c-.396 0-.8.05-1.21.148.681.886 1.322 1.88 1.921 2.985.36-.136.698-.293 1.016-.473.317-.18.569-.34.754-.48.184-.14.355-.29.511-.446.157-.156.254-.261.293-.316l.098-.137zm1.742 3.79a5.013 5.013 0 0 0-1.164-3.204l-.008.008a7.77 7.77 0 0 1-.148.191 4.488 4.488 0 0 1-.34.348c-.175.167-.36.324-.555.473a7.948 7.948 0 0 1-.781.508c-.326.19-.668.358-1.027.503.13.276.244.524.343.743l.051.132a.896.896 0 0 0 .059.133c.187-.026.381-.044.582-.054a11.094 11.094 0 0 1 1.113-.004 12.86 12.86 0 0 1 1.602.172c.078.013.143.024.195.035l.078.015zm.07-2.954c.537.917.805 1.92.805 3.008a5.87 5.87 0 0 1-.805 3.012 5.973 5.973 0 0 1-2.183 2.183 5.87 5.87 0 0 1-3.012.805 5.87 5.87 0 0 1-3.012-.805 5.973 5.973 0 0 1-2.183-2.183A5.87 5.87 0 0 1 .828 6.5a5.87 5.87 0 0 1 .805-3.012 5.973 5.973 0 0 1 2.183-2.183A5.87 5.87 0 0 1 6.828.5a5.87 5.87 0 0 1 3.012.805 5.964 5.964 0 0 1 2.183 2.187z" fill="#000" fill-rule="evenodd"/></svg>