<svg width="15" height="12" viewBox="0 0 15 12" xmlns="http://www.w3.org/2000/svg"><title></title><path d="M13.828 10.25v-6c-.167.188-.346.36-.539.516a109.45 109.45 0 0 0-3.328 2.64c-.266.224-.482.399-.649.524a3.609 3.609 0 0 1-.675.379 1.96 1.96 0 0 1-.801.191H7.82a1.96 1.96 0 0 1-.8-.191 3.609 3.609 0 0 1-.676-.38c-.167-.124-.383-.299-.649-.523a109.45 109.45 0 0 0-3.328-2.64 4.578 4.578 0 0 1-.539-.516v6a.24.24 0 0 0 .074.176.24.24 0 0 0 .176.074h11.5a.24.24 0 0 0 .176-.074.24.24 0 0 0 .074-.176zm0-8.21v-.192c0-.024-.001-.058-.004-.102a.214.214 0 0 0-.023-.098 4.567 4.567 0 0 1-.043-.07.143.143 0 0 0-.07-.058.283.283 0 0 0-.11-.02h-11.5a.24.24 0 0 0-.176.074.24.24 0 0 0-.074.176c0 .875.383 1.615 1.149 2.219 1.005.791 2.049 1.617 3.132 2.476l.274.23c.15.128.27.226.36.294.088.067.204.15.347.246s.275.168.394.215c.12.047.232.07.336.07h.016a.925.925 0 0 0 .336-.07c.12-.047.251-.119.394-.215.144-.097.26-.179.348-.246.089-.068.208-.166.36-.293.15-.128.242-.205.273-.23 1.083-.86 2.127-1.686 3.133-2.477.28-.224.543-.525.785-.903.242-.377.363-.72.363-1.027zm1-.29v8.5c0 .344-.122.638-.367.883s-.54.367-.883.367h-11.5c-.344 0-.638-.122-.883-.367a1.204 1.204 0 0 1-.367-.883v-8.5c0-.344.122-.638.367-.883S1.735.5 2.078.5h11.5c.344 0 .638.122.883.367s.367.54.367.883z" fill="#000" fill-rule="evenodd"/></svg>