<?xml version="1.0" encoding="UTF-8"?>
<svg width="15px" height="12px" viewBox="0 0 15 12" version="1.1" xmlns="http://www.w3.org/2000/svg" xmlns:xlink="http://www.w3.org/1999/xlink">
    <!-- Generator: Sketch 49.3 (51167) - http://www.bohemiancoding.com/sketch -->
    <title></title>
    <desc>Created with Sketch.</desc>
    <defs></defs>
    <g id="Page-1" stroke="none" stroke-width="1" fill="none" fill-rule="evenodd">
        <g id="FontAwesome-4.3" transform="translate(-40.000000, -3312.000000)" fill="#000000">
            <path d="M53.8281,3322.25 L53.8281,3316.25 C53.6614325,3316.4375 53.4817468,3316.60937 53.2890375,3316.76562 C51.8931972,3317.83855 50.7838333,3318.71875 49.9609125,3319.40625 C49.6952862,3319.63021 49.4791425,3319.80469 49.312475,3319.92969 C49.1458075,3320.05469 48.9205493,3320.18099 48.6366937,3320.30859 C48.3528382,3320.4362 48.0859137,3320.5 47.8359125,3320.5 L47.8202875,3320.5 C47.5702862,3320.5 47.3033618,3320.4362 47.0195062,3320.30859 C46.7356507,3320.18099 46.5103925,3320.05469 46.343725,3319.92969 C46.1770575,3319.80469 45.9609138,3319.63021 45.6952875,3319.40625 C44.8723667,3318.71875 43.7630028,3317.83855 42.3671625,3316.76562 C42.1744532,3316.60937 41.9947675,3316.4375 41.8281,3316.25 L41.8281,3322.25 C41.8281,3322.31771 41.8528393,3322.3763 41.9023187,3322.42578 C41.9517982,3322.47526 42.0103913,3322.5 42.0781,3322.5 L53.5781,3322.5 C53.6458087,3322.5 53.7044018,3322.47526 53.7538812,3322.42578 C53.8033607,3322.3763 53.8281,3322.31771 53.8281,3322.25 Z M53.8281,3314.03906 L53.8281,3313.84766 C53.8281,3313.82422 53.8267979,3313.79036 53.8241937,3313.74609 C53.8215896,3313.70182 53.8137771,3313.66927 53.8007562,3313.64844 C53.7877354,3313.6276 53.7734126,3313.60417 53.7577875,3313.57812 C53.7421624,3313.55208 53.7187252,3313.53255 53.687475,3313.51953 C53.6562248,3313.50651 53.6197669,3313.5 53.5781,3313.5 L42.0781,3313.5 C42.0103913,3313.5 41.9517982,3313.52474 41.9023187,3313.57422 C41.8528393,3313.6237 41.8281,3313.68229 41.8281,3313.75 C41.8281,3314.625 42.2109087,3315.36458 42.9765375,3315.96875 C43.9817509,3316.76042 45.0260112,3317.58593 46.10935,3318.44531 C46.1406002,3318.47135 46.2317451,3318.54818 46.3827875,3318.67578 C46.5338299,3318.80339 46.6536204,3318.90104 46.7421625,3318.96875 C46.8307046,3319.03646 46.9465889,3319.11849 47.0898187,3319.21484 C47.2330486,3319.3112 47.3645577,3319.38281 47.48435,3319.42969 C47.6041423,3319.47656 47.7161203,3319.5 47.8202875,3319.5 L47.8359125,3319.5 C47.9400797,3319.5 48.0520577,3319.47656 48.17185,3319.42969 C48.2916423,3319.38281 48.4231514,3319.3112 48.5663812,3319.21484 C48.7096111,3319.11849 48.8254954,3319.03646 48.9140375,3318.96875 C49.0025796,3318.90104 49.1223701,3318.80339 49.2734125,3318.67578 C49.4244549,3318.54818 49.5155998,3318.47135 49.54685,3318.44531 C50.6301887,3317.58593 51.6744491,3316.76042 52.6796625,3315.96875 C52.9609139,3315.74479 53.22263,3315.44401 53.4648187,3315.06641 C53.7070075,3314.6888 53.8281,3314.34636 53.8281,3314.03906 Z M54.8281,3313.75 L54.8281,3322.25 C54.8281,3322.59375 54.7057054,3322.88802 54.4609125,3323.13281 C54.2161196,3323.37761 53.9218517,3323.5 53.5781,3323.5 L42.0781,3323.5 C41.7343483,3323.5 41.4400804,3323.37761 41.1952875,3323.13281 C40.9504946,3322.88802 40.8281,3322.59375 40.8281,3322.25 L40.8281,3313.75 C40.8281,3313.40625 40.9504946,3313.11198 41.1952875,3312.86719 C41.4400804,3312.62239 41.7343483,3312.5 42.0781,3312.5 L53.5781,3312.5 C53.9218517,3312.5 54.2161196,3312.62239 54.4609125,3312.86719 C54.7057054,3313.11198 54.8281,3313.40625 54.8281,3313.75 Z" id=""></path>
        </g>
    </g>
</svg>