<svg width="13" height="13" viewBox="0 0 13 13" xmlns="http://www.w3.org/2000/svg"><title></title><path d="M3.555 4.383v7.742H.977V4.383h2.578zm.164-2.39c.005.38-.127.697-.395.952-.268.256-.62.383-1.058.383H2.25c-.427 0-.77-.127-1.031-.383a1.28 1.28 0 0 1-.39-.953c0-.385.133-.704.401-.957C1.5.783 1.85.656 2.281.656c.433 0 .779.127 1.04.38.26.252.393.57.398.956zm3.828 3.49c.1-.156.2-.294.305-.413.109-.125.256-.26.44-.406a2.03 2.03 0 0 1 .68-.34c.269-.08.567-.12.895-.12.89 0 1.607.295 2.149.886.541.591.812 1.457.812 2.598v4.437h-2.57v-4.14c0-.548-.106-.976-.317-1.286-.21-.31-.54-.465-.988-.465-.328 0-.603.09-.824.27-.221.18-.387.402-.496.668-.058.156-.086.367-.086.633v4.32h-2.57c.01-2.078.015-3.763.015-5.055 0-1.291-.002-2.062-.008-2.312l-.007-.375h2.57v1.1z" fill="#000" fill-rule="evenodd"/></svg>