<?xml version="1.0" encoding="UTF-8"?>
<svg width="13px" height="13px" viewBox="0 0 13 13" version="1.1" xmlns="http://www.w3.org/2000/svg" xmlns:xlink="http://www.w3.org/1999/xlink">
    <!-- Generator: Sketch 49.3 (51167) - http://www.bohemiancoding.com/sketch -->
    <title></title>
    <desc>Created with Sketch.</desc>
    <defs></defs>
    <g id="Page-1" stroke="none" stroke-width="1" fill="none" fill-rule="evenodd">
        <g id="FontAwesome-4.3" transform="translate(-40.000000, -5795.000000)" fill="#000000">
            <path d="M43.5546625,5799.38281 L43.5546625,5807.125 L40.9765375,5807.125 L40.9765375,5799.38281 L43.5546625,5799.38281 Z M43.718725,5796.99219 C43.7239334,5797.3724 43.5924243,5797.6901 43.3241937,5797.94531 C43.0559632,5798.20052 42.7031022,5798.32812 42.2656,5798.32812 L42.249975,5798.32812 C41.8228895,5798.32812 41.479143,5798.20052 41.218725,5797.94531 C40.958307,5797.6901 40.8281,5797.3724 40.8281,5796.99219 C40.8281,5796.60677 40.9622132,5796.28776 41.2304437,5796.03516 C41.4986743,5795.78255 41.8489312,5795.65625 42.281225,5795.65625 C42.7135188,5795.65625 43.0598695,5795.78255 43.3202875,5796.03516 C43.5807055,5796.28776 43.7135166,5796.60677 43.718725,5796.99219 Z M47.54685,5800.483 C47.6460623,5800.32663 47.7476239,5800.18907 47.8515375,5800.07031 C47.960913,5799.94531 48.108047,5799.8099 48.2929437,5799.66406 C48.4778405,5799.51823 48.7044007,5799.40495 48.9726312,5799.32422 C49.2408618,5799.24349 49.5390359,5799.20312 49.8671625,5799.20312 C50.757792,5799.20312 51.4739306,5799.49869 52.0156,5800.08984 C52.5572694,5800.68099 52.8281,5801.54687 52.8281,5802.6875 L52.8281,5807.125 L50.2577875,5807.125 L50.2577875,5802.98438 C50.2577875,5802.4375 50.1523198,5802.00912 49.9413812,5801.69922 C49.7304427,5801.38932 49.4010189,5801.23438 48.9531,5801.23438 C48.6249734,5801.23438 48.3502365,5801.32422 48.1288812,5801.50391 C47.907526,5801.68359 47.742163,5801.90625 47.6327875,5802.17188 C47.5754955,5802.32813 47.54685,5802.53906 47.54685,5802.80469 L47.54685,5807.125 L44.9765375,5807.125 C44.9869542,5805.04686 44.9921625,5803.36199 44.9921625,5802.07031 C44.9921625,5800.77864 44.9895584,5800.00781 44.98435,5799.75781 L44.9765375,5799.38281 L47.54685,5799.38281 L47.54685,5800.483 Z" id=""></path>
        </g>
    </g>
</svg>