<?xml version="1.0" encoding="UTF-8"?>
<svg width="490px" height="292px" viewBox="0 0 490 292" version="1.1" xmlns="http://www.w3.org/2000/svg" xmlns:xlink="http://www.w3.org/1999/xlink">
    <!-- Generator: Sketch 50 (54983) - http://www.bohemiancoding.com/sketch -->
    <title>Group 6</title>
    <desc>Created with Sketch.</desc>
    <defs>
        <linearGradient x1="26.5856186%" y1="5.9811828%" x2="50%" y2="100%" id="linearGradient-1">
            <stop stop-color="#2E5BC5" offset="0%"></stop>
            <stop stop-color="#082657" offset="100%"></stop>
        </linearGradient>
        <path d="M0,0 L169.748728,0 C175.271576,-1.01453063e-15 179.748728,4.4771525 179.748728,10 L179.748728,226.318912 C179.748728,231.841759 175.271576,236.318912 169.748728,236.318912 L0,236.318912 L0,0 Z" id="path-2"></path>
        <rect id="path-4" x="0" y="0" width="60.2883933" height="109.838367"></rect>
        <filter x="-10.0%" y="-4.6%" width="123.2%" height="112.7%" filterUnits="objectBoundingBox" id="filter-6">
            <feOffset dx="1" dy="2" in="SourceAlpha" result="shadowOffsetOuter1"></feOffset>
            <feGaussianBlur stdDeviation="2" in="shadowOffsetOuter1" result="shadowBlurOuter1"></feGaussianBlur>
            <feComposite in="shadowBlurOuter1" in2="SourceAlpha" operator="out" result="shadowBlurOuter1"></feComposite>
            <feColorMatrix values="0 0 0 0 0.692920918   0 0 0 0 0.692920918   0 0 0 0 0.692920918  0 0 0 0.5 0" type="matrix" in="shadowBlurOuter1"></feColorMatrix>
        </filter>
        <rect id="path-7" x="0" y="0" width="36.1696528" height="109.838367"></rect>
    </defs>
    <g id="Page-1" stroke="none" stroke-width="1" fill="none" fill-rule="evenodd">
        <g id="Desktop" transform="translate(-438.000000, -36.000000)">
            <g id="Group-6" transform="translate(438.000000, 36.000000)">
                <path d="M0,0 L490,0 L490,179 C490,234.228475 445.228475,279 390,279 L100,279 C44.771525,279 6.76353751e-15,234.228475 0,179 L0,0 Z" id="Rectangle-19" fill="url(#linearGradient-1)"></path>
                <g id="Group-5" transform="translate(56.000000, 36.000000)">
                    <rect id="Rectangle" fill="#012B65" x="0" y="0" width="377" height="256" rx="15"></rect>
                    <g id="Left-Screen" transform="translate(9.000000, 11.000000)">
                        <path d="M10,0 L179.748728,0 L179.748728,236.318912 L10,236.318912 C4.4771525,236.318912 6.76353751e-16,231.841759 0,226.318912 L0,10 C-6.76353751e-16,4.4771525 4.4771525,1.01453063e-15 10,0 Z" id="Rectangle" fill="#032758"></path>
                        <rect id="Rectangle-2" fill="#001A3E" x="36.842907" y="0" width="44.6580691" height="12.204263"></rect>
                        <rect id="Rectangle-4" fill="#002559" x="45.7745209" y="4.43791383" width="26.7948415" height="3.32843538" rx="1.66421769"></rect>
                        <rect id="Rectangle-2" fill="#001A3E" x="83.7338796" y="0" width="44.6580691" height="12.204263"></rect>
                        <rect id="Rectangle-2" fill="#001A3E" x="130.624852" y="0" width="44.6580691" height="12.204263"></rect>
                        <path d="M10,0 L34.6100036,0 L34.6100036,236.318912 L10,236.318912 C4.4771525,236.318912 6.76353751e-16,231.841759 0,226.318912 L-1.77635684e-15,10 C-2.45271059e-15,4.4771525 4.4771525,1.01453063e-15 10,0 Z" id="Rectangle" fill="#001A3E"></path>
                        <rect id="Rectangle-6" fill="#002559" x="6.69871037" y="35.5033107" width="22.3290346" height="4.43791383" rx="2.21895692"></rect>
                        <rect id="Rectangle-6" fill="#002559" x="6.69871037" y="47.7075737" width="17.8632277" height="4.43791383" rx="2.21895692"></rect>
                        <rect id="Rectangle-6" fill="#002559" x="6.69871037" y="71.0066213" width="17.8632277" height="4.43791383" rx="2.21895692"></rect>
                        <rect id="Rectangle-6" fill="#002559" x="6.69871037" y="59.9118368" width="21.2125828" height="4.43791383" rx="2.21895692"></rect>
                        <rect id="Rectangle-5" fill="#002559" x="1.11645173" y="17.7516553" width="33.4935519" height="9.98530613"></rect>
                        <rect id="Rectangle-4" fill="#002559" x="92.6654935" y="4.43791383" width="21.2125828" height="3.32843538" rx="1.66421769"></rect>
                        <rect id="Rectangle-4" fill="#002559" x="137.323563" y="4.43791383" width="30.1441967" height="3.32843538" rx="1.66421769"></rect>
                        <g id="Code-Group" transform="translate(43.541617, 26.089377)">
                            <rect id="Rectangle-3" fill="#7ED321" x="0" y="0" width="62.5212968" height="5.04255319" rx="2.5212766"></rect>
                            <rect id="Rectangle-3" fill="#4277FF" x="0" y="11.9613258" width="34.6100036" height="6" rx="3"></rect>
                            <rect id="Rectangle-3" fill="#F5A623" x="40.1922622" y="11.9613258" width="72.5693623" height="6" rx="3"></rect>
                            <rect id="Rectangle-3" fill="#4277FF" x="0" y="38.5888088" width="34.6100036" height="6" rx="3"></rect>
                            <rect id="Rectangle-3" fill="#FF623A" x="40.1922622" y="38.5888088" width="46.8909726" height="6" rx="3"></rect>
                            <rect id="Rectangle-3" fill="#4277FF" x="0" y="25.2750673" width="44.6580691" height="6" rx="3"></rect>
                            <rect id="Rectangle-3" fill="#F5A623" x="50.2403278" y="25.2750673" width="62.5212968" height="6" rx="3"></rect>
                        </g>
                        <g id="Code-Group-2" transform="translate(43.541617, 175.297596)">
                            <rect id="Rectangle-3" fill="#7ED321" x="0" y="0" width="81.5009762" height="5.04255319" rx="2.5212766"></rect>
                            <rect id="Rectangle-3" fill="#F5A623" x="0" y="13.6421769" width="50.2403278" height="6" rx="3"></rect>
                            <rect id="Rectangle-3" fill="#4277FF" x="40.1922622" y="40.2696599" width="34.6100036" height="6" rx="3"></rect>
                            <rect id="Rectangle-3" fill="#7ED321" x="81.5009762" y="40.2696599" width="34.6100036" height="6" rx="3"></rect>
                            <rect id="Rectangle-3" fill="#F5A623" x="0" y="40.2696599" width="34.6100036" height="6" rx="3"></rect>
                            <rect id="Rectangle-3" fill="#4277FF" x="55.8225864" y="13.6421769" width="44.6580691" height="6" rx="3"></rect>
                            <rect id="Rectangle-3" fill="#F5A623" x="0" y="26.9559184" width="62.5212968" height="6" rx="3"></rect>
                        </g>
                        <g id="Code-Group-2" transform="translate(43.541617, 94.036616)">
                            <rect id="Rectangle-3" fill="#7ED321" x="0" y="0" width="34.6100036" height="5.04255319" rx="2.5212766"></rect>
                            <rect id="Rectangle-3" fill="#F5A623" x="0" y="12.8017513" width="50.2403278" height="6" rx="3"></rect>
                            <rect id="Rectangle-3" fill="#F5A623" x="0" y="52.7429758" width="58.0554899" height="6" rx="3"></rect>
                            <rect id="Rectangle-3" fill="#4277FF" x="40.1922622" y="39.4292343" width="34.6100036" height="6" rx="3"></rect>
                            <rect id="Rectangle-3" fill="#FF623A" x="81.5009762" y="39.4292343" width="34.6100036" height="6" rx="3"></rect>
                            <rect id="Rectangle-3" fill="#F5A623" x="0" y="39.4292343" width="34.6100036" height="6" rx="3"></rect>
                            <rect id="Rectangle-3" fill="#4277FF" x="0" y="26.1154928" width="44.6580691" height="6" rx="3"></rect>
                            <rect id="Rectangle-3" fill="#7ED321" x="50.2403278" y="26.1154928" width="62.5212968" height="6" rx="3"></rect>
                        </g>
                    </g>
                    <g id="Right-Screen" transform="translate(189.000000, 10.000000)">
                        <mask id="mask-3" fill="white">
                            <use xlink:href="#path-2"></use>
                        </mask>
                        <use id="Rectangle" fill="#FFFFFF" xlink:href="#path-2"></use>
                        <g id="Mobile-Screen-+-Highlighted" mask="url(#mask-3)">
                            <g transform="translate(68.103555, 75.444535)">
                                <g id="Mobile-Screen" transform="translate(1.116452, 1.109478)">
                                    <mask id="mask-5" fill="white">
                                        <use xlink:href="#path-4"></use>
                                    </mask>
                                    <g id="Rectangle-12">
                                        <use fill="black" fill-opacity="1" filter="url(#filter-6)" xlink:href="#path-4"></use>
                                        <rect stroke="#032758" stroke-width="1" stroke-linejoin="square" fill="#FFFFFF" fill-rule="evenodd" x="0.5" y="0.5" width="59.2883933" height="108.838367"></rect>
                                    </g>
                                    <g id="CTA" mask="url(#mask-5)">
                                        <g transform="translate(6.698710, 79.882449)">
                                            <rect id="CTA" fill="#4277FF" x="0" y="0" width="46.8909726" height="8.87582767" rx="2"></rect>
                                            <rect id="Rectangle-10" fill="#FFFFFF" opacity="0.2" x="11.1645173" y="3.32843538" width="25.6783898" height="2.21895692" rx="1.10947846"></rect>
                                            <rect id="Rectangle-17" fill="#E4EBF3" x="10.0480656" y="14.42322" width="26.7948415" height="2.21895692" rx="1.10947846"></rect>
                                        </g>
                                    </g>
                                    <rect id="Rectangle-15" stroke="#E4EBF3" fill="#FFFFFF" mask="url(#mask-5)" x="7.19871037" y="49.3170522" width="45.8909726" height="8.98530613" rx="2"></rect>
                                    <rect id="Rectangle-15" stroke="#E4EBF3" fill="#FFFFFF" mask="url(#mask-5)" x="7.19871037" y="64.8497506" width="45.8909726" height="8.98530613" rx="2"></rect>
                                    <rect id="Rectangle-13" fill="#E4EBF3" mask="url(#mask-5)" x="1.11645173" y="1.10947846" width="58.0554899" height="42.1601814"></rect>
                                    <path d="M27.4228456,18.2370522 C27.748479,18.5606517 27.9112932,18.953588 27.9112932,19.415873 C27.9112932,19.878158 27.748479,20.2710944 27.4228456,20.5946939 C27.0972122,20.9182934 26.7018062,21.0800907 26.2366156,21.0800907 C25.7714251,21.0800907 25.376019,20.9182934 25.0503857,20.5946939 C24.7247523,20.2710944 24.561938,19.878158 24.561938,19.415873 C24.561938,18.953588 24.7247523,18.5606517 25.0503857,18.2370522 C25.376019,17.9134527 25.7714251,17.7516553 26.2366156,17.7516553 C26.7018062,17.7516553 27.0972122,17.9134527 27.4228456,18.2370522 Z M36.842907,22.7443084 L36.842907,26.627483 L24.561938,26.627483 L24.561938,24.9632653 L27.3530673,22.1895692 L28.748632,23.5764172 L33.2144389,19.1385034 L36.842907,22.7443084 Z M37.6802458,16.6421769 L23.7245992,16.6421769 C23.6490058,16.6421769 23.5835893,16.6696246 23.5283479,16.724521 C23.4731066,16.7794173 23.4454863,16.8444252 23.4454863,16.9195465 L23.4454863,27.4595918 C23.4454863,27.5347132 23.4731066,27.599721 23.5283479,27.6546174 C23.5835893,27.7095137 23.6490058,27.7369615 23.7245992,27.7369615 L37.6802458,27.7369615 C37.7558393,27.7369615 37.8212557,27.7095137 37.8764971,27.6546174 C37.9317385,27.599721 37.9593588,27.5347132 37.9593588,27.4595918 L37.9593588,16.9195465 C37.9593588,16.8444252 37.9317385,16.7794173 37.8764971,16.724521 C37.8212557,16.6696246 37.7558393,16.6421769 37.6802458,16.6421769 Z M39.0758105,16.9195465 L39.0758105,27.4595918 C39.0758105,27.840977 38.9391628,28.1674609 38.6658634,28.4390533 C38.3925639,28.7106457 38.064028,28.8464399 37.6802458,28.8464399 L23.7245992,28.8464399 C23.340817,28.8464399 23.0122811,28.7106457 22.7389817,28.4390533 C22.4656822,28.1674609 22.3290346,27.840977 22.3290346,27.4595918 L22.3290346,16.9195465 C22.3290346,16.5381614 22.4656822,16.2116775 22.7389817,15.940085 C23.0122811,15.6684926 23.340817,15.5326984 23.7245992,15.5326984 L37.6802458,15.5326984 C38.064028,15.5326984 38.3925639,15.6684926 38.6658634,15.940085 C38.9391628,16.2116775 39.0758105,16.5381614 39.0758105,16.9195465 Z" id="" fill="#FFFFFF" mask="url(#mask-5)"></path>
                                    <g id="Group-3" mask="url(#mask-5)" fill="#FFFFFF">
                                        <g transform="translate(49.123876, 4.437914)" id="Rectangle-14">
                                            <rect x="0" y="0" width="7.8151621" height="1.10947846" rx="0.554739229"></rect>
                                            <rect x="0" y="2.21895692" width="7.8151621" height="1.10947846" rx="0.554739229"></rect>
                                        </g>
                                    </g>
                                </g>
                                <g id="Group-2">
                                    <rect id="Rectangle-16" stroke="#8294AC" fill="#FFFFFF" x="0.5" y="55.9739229" width="2.34935519" height="2.32843538"></rect>
                                    <rect id="Rectangle-16" stroke="#8294AC" fill="#FFFFFF" x="30.6441967" y="109.228889" width="2.34935519" height="2.32843538"></rect>
                                    <rect id="Rectangle-16" stroke="#8294AC" fill="#FFFFFF" x="59.6719416" y="109.228889" width="2.34935519" height="2.32843538"></rect>
                                    <rect id="Rectangle-16" stroke="#8294AC" fill="#FFFFFF" x="0.5" y="109.228889" width="2.34935519" height="2.32843538"></rect>
                                    <rect id="Rectangle-16" stroke="#8294AC" fill="#FFFFFF" x="59.6719416" y="55.9739229" width="2.34935519" height="2.32843538"></rect>
                                    <rect id="Rectangle-16" stroke="#8294AC" fill="#FFFFFF" x="29.5277449" y="0.5" width="2.34935519" height="2.32843538"></rect>
                                    <rect id="Rectangle-16" stroke="#8294AC" fill="#FFFFFF" x="59.6719416" y="0.5" width="2.34935519" height="2.32843538"></rect>
                                    <rect id="Rectangle-16" stroke="#8294AC" fill="#FFFFFF" x="0.5" y="0.5" width="2.34935519" height="2.32843538"></rect>
                                </g>
                            </g>
                        </g>
                        <g id="Mobile-Screen-+-Highlighted" mask="url(#mask-3)">
                            <g transform="translate(142.905821, 76.554014)" id="Mobile-Screen">
                                <g>
                                    <mask id="mask-8" fill="white">
                                        <use xlink:href="#path-7"></use>
                                    </mask>
                                    <use id="Rectangle-12" fill="#FFFFFF" xlink:href="#path-7"></use>
                                    <g id="Group-4" mask="url(#mask-8)">
                                        <g transform="translate(4.465807, 15.532698)">
                                            <path d="M4,0 L31.5516385,0 L31.5516385,47.7075737 L4,47.7075737 C1.790861,47.7075737 2.705415e-16,45.9167127 0,43.7075737 L0,4 C-2.705415e-16,1.790861 1.790861,4.05812251e-16 4,0 Z" id="Rectangle-18" stroke="none" fill="#E4EBF3"></path>
                                            <path d="M0.5,38.2222676 L0.5,43.7075737 C0.5,45.6405703 2.06700338,47.2075737 4,47.2075737 L31.0516385,47.2075737 L31.0516385,38.2222676 L0.5,38.2222676 Z" id="Rectangle-18" stroke="#E4EBF3" stroke-width="1" fill="#FFFFFF"></path>
                                            <path d="M17.37478,18.2370522 C17.7004134,18.5606517 17.8632277,18.953588 17.8632277,19.415873 C17.8632277,19.878158 17.7004134,20.2710944 17.37478,20.5946939 C17.0491466,20.9182934 16.6537406,21.0800907 16.1885501,21.0800907 C15.7233595,21.0800907 15.3279535,20.9182934 15.0023201,20.5946939 C14.6766867,20.2710944 14.5138725,19.878158 14.5138725,19.415873 C14.5138725,18.953588 14.6766867,18.5606517 15.0023201,18.2370522 C15.3279535,17.9134527 15.7233595,17.7516553 16.1885501,17.7516553 C16.6537406,17.7516553 17.0491466,17.9134527 17.37478,18.2370522 Z M26.7948415,22.7443084 L26.7948415,26.627483 L14.5138725,26.627483 L14.5138725,24.9632653 L17.3050018,22.1895692 L18.7005664,23.5764172 L23.1663734,19.1385034 L26.7948415,22.7443084 Z M27.6321803,16.6421769 L13.6765337,16.6421769 C13.6009402,16.6421769 13.5355238,16.6696246 13.4802824,16.724521 C13.425041,16.7794173 13.3974207,16.8444252 13.3974207,16.9195465 L13.3974207,27.4595918 C13.3974207,27.5347132 13.425041,27.599721 13.4802824,27.6546174 C13.5355238,27.7095137 13.6009402,27.7369615 13.6765337,27.7369615 L27.6321803,27.7369615 C27.7077737,27.7369615 27.7731902,27.7095137 27.8284316,27.6546174 C27.8836729,27.599721 27.9112932,27.5347132 27.9112932,27.4595918 L27.9112932,16.9195465 C27.9112932,16.8444252 27.8836729,16.7794173 27.8284316,16.724521 C27.7731902,16.6696246 27.7077737,16.6421769 27.6321803,16.6421769 Z M29.0277449,16.9195465 L29.0277449,27.4595918 C29.0277449,27.840977 28.8910973,28.1674609 28.6177978,28.4390533 C28.3444984,28.7106457 28.0159625,28.8464399 27.6321803,28.8464399 L13.6765337,28.8464399 C13.2927515,28.8464399 12.9642156,28.7106457 12.6909161,28.4390533 C12.4176167,28.1674609 12.280969,27.840977 12.280969,27.4595918 L12.280969,16.9195465 C12.280969,16.5381614 12.4176167,16.2116775 12.6909161,15.940085 C12.9642156,15.6684926 13.2927515,15.5326984 13.6765337,15.5326984 L27.6321803,15.5326984 C28.0159625,15.5326984 28.3444984,15.6684926 28.6177978,15.940085 C28.8910973,16.2116775 29.0277449,16.5381614 29.0277449,16.9195465 Z" id="" stroke="none" fill="#FFFFFF"></path>
                                        </g>
                                    </g>
                                    <g id="Group-4" mask="url(#mask-8)">
                                        <g transform="translate(4.465807, 66.568708)">
                                            <path d="M4,0 L31.5516385,0 L31.5516385,46.5980953 L4,46.5980953 C1.790861,46.5980953 2.705415e-16,44.8072343 0,42.5980953 L0,4 C-2.705415e-16,1.790861 1.790861,4.05812251e-16 4,0 Z" id="Rectangle-18" stroke="none" fill="#E4EBF3"></path>
                                            <path d="M0.5,37.1127891 L0.5,42.5980953 C0.5,44.5310919 2.06700338,46.0980953 4,46.0980953 L31.0516385,46.0980953 L31.0516385,37.1127891 L0.5,37.1127891 Z" id="Rectangle-18" stroke="#E4EBF3" stroke-width="1" fill="#FFFFFF"></path>
                                            <path d="M17.37478,17.1275737 C17.7004134,17.4511732 17.8632277,17.8441096 17.8632277,18.3063946 C17.8632277,18.7686796 17.7004134,19.1616159 17.37478,19.4852154 C17.0491466,19.8088149 16.6537406,19.9706123 16.1885501,19.9706123 C15.7233595,19.9706123 15.3279535,19.8088149 15.0023201,19.4852154 C14.6766867,19.1616159 14.5138725,18.7686796 14.5138725,18.3063946 C14.5138725,17.8441096 14.6766867,17.4511732 15.0023201,17.1275737 C15.3279535,16.8039742 15.7233595,16.6421769 16.1885501,16.6421769 C16.6537406,16.6421769 17.0491466,16.8039742 17.37478,17.1275737 Z M26.7948415,21.6348299 L26.7948415,25.5180045 L14.5138725,25.5180045 L14.5138725,23.8537869 L17.3050018,21.0800907 L18.7005664,22.4669388 L23.1663734,18.0290249 L26.7948415,21.6348299 Z M27.6321803,15.5326984 L13.6765337,15.5326984 C13.6009402,15.5326984 13.5355238,15.5601462 13.4802824,15.6150425 C13.425041,15.6699389 13.3974207,15.7349467 13.3974207,15.810068 L13.3974207,26.3501134 C13.3974207,26.4252347 13.425041,26.4902426 13.4802824,26.5451389 C13.5355238,26.6000352 13.6009402,26.627483 13.6765337,26.627483 L27.6321803,26.627483 C27.7077737,26.627483 27.7731902,26.6000352 27.8284316,26.5451389 C27.8836729,26.4902426 27.9112932,26.4252347 27.9112932,26.3501134 L27.9112932,15.810068 C27.9112932,15.7349467 27.8836729,15.6699389 27.8284316,15.6150425 C27.7731902,15.5601462 27.7077737,15.5326984 27.6321803,15.5326984 Z M29.0277449,15.810068 L29.0277449,26.3501134 C29.0277449,26.7314985 28.8910973,27.0579824 28.6177978,27.3295748 C28.3444984,27.6011673 28.0159625,27.7369615 27.6321803,27.7369615 L13.6765337,27.7369615 C13.2927515,27.7369615 12.9642156,27.6011673 12.6909161,27.3295748 C12.4176167,27.0579824 12.280969,26.7314985 12.280969,26.3501134 L12.280969,15.810068 C12.280969,15.4286829 12.4176167,15.102199 12.6909161,14.8306066 C12.9642156,14.5590141 13.2927515,14.42322 13.6765337,14.42322 L27.6321803,14.42322 C28.0159625,14.42322 28.3444984,14.5590141 28.6177978,14.8306066 C28.8910973,15.102199 29.0277449,15.4286829 29.0277449,15.810068 Z" id="" stroke="none" fill="#FFFFFF"></path>
                                        </g>
                                    </g>
                                    <rect id="Rectangle-13" fill="#E4EBF3" mask="url(#mask-8)" x="1.11645173" y="1.10947846" width="35.2135425" height="9.98530613"></rect>
                                </g>
                            </g>
                        </g>
                        <g id="Left-Layers" mask="url(#mask-3)">
                            <g transform="translate(-0.275330, 25.518005)">
                                <rect id="Rectangle-7" fill="#E4EBF3" x="0.275330233" y="0" width="51.3567795" height="210.800907"></rect>
                                <rect id="Rectangle-9" fill="#F1F8FF" x="0.275330233" y="1.10947846" width="51.3567795" height="11.0947846"></rect>
                                <rect id="Rectangle-9" fill="#4277FF" x="0.275330233" y="25.5180045" width="51.3567795" height="11.0947846"></rect>
                                <rect id="Rectangle-10" fill="#FFFFFF" x="12.5562992" y="29.9559184" width="33.4935519" height="2.21895692" rx="1.10947846"></rect>
                                <rect id="Rectangle-10" fill="#AAB9C8" x="11.4398475" y="17.7516553" width="29.0277449" height="2.21895692" rx="1.10947846"></rect>
                                <rect id="Rectangle-10" fill="#AAB9C8" x="12.5562992" y="42.1601814" width="25.6783898" height="2.21895692" rx="1.10947846"></rect>
                                <rect id="Rectangle-10" fill="#AAB9C8" x="12.5562992" y="51.0360091" width="31.2606484" height="2.21895692" rx="1.10947846"></rect>
                                <rect id="Rectangle-10" fill="#AAB9C8" x="4.74113715" y="5.54739229" width="35.7264553" height="2.21895692" rx="1.10947846"></rect>
                            </g>
                        </g>
                        <g id="Top-bar---Sketch" mask="url(#mask-3)">
                            <path d="M0,0 L169.748728,0 C175.271576,-1.01453063e-15 179.748728,4.4771525 179.748728,10 L179.748728,25.5180045 L0,25.5180045 L0,0 Z" id="Rectangle-8" fill="#D9E2EB"></path>
                            <rect id="Rectangle-11" stroke="#AAB9C8" fill="#FFFFFF" x="6.08225864" y="7.15687075" width="11.280969" height="11.204263" rx="3"></rect>
                            <rect id="Rectangle-11" stroke="#AAB9C8" fill="#3C6FEE" opacity="0.395889946" x="28.4112932" y="7.15687075" width="11.280969" height="11.204263" rx="3"></rect>
                            <rect id="Rectangle-11" stroke="#AAB9C8" fill="#FFFFFF" opacity="0.395889946" x="45.1580691" y="7.15687075" width="11.280969" height="11.204263" rx="3"></rect>
                            <rect id="Rectangle-11" stroke="#AAB9C8" fill="#B8E986" opacity="0.395889946" x="78.651621" y="7.15687075" width="11.280969" height="11.204263" rx="3"></rect>
                            <rect id="Rectangle-11" stroke="#AAB9C8" fill="#B8E986" opacity="0.395889946" x="97.6313004" y="7.15687075" width="11.280969" height="11.204263" rx="3"></rect>
                            <rect id="Rectangle-11" stroke="#AAB9C8" fill="#B8E986" opacity="0.395889946" x="116.61098" y="7.15687075" width="11.280969" height="11.204263" rx="3"></rect>
                            <rect id="Rectangle-11" fill="#F5A623" opacity="0.395889946" x="141.789369" y="6.65687075" width="12.280969" height="12.204263" rx="3"></rect>
                            <rect id="Rectangle-11" stroke="#AAB9C8" fill="#FFFFFF" opacity="0.395889946" x="161.269049" y="7.15687075" width="11.280969" height="11.204263" rx="3"></rect>
                        </g>
                    </g>
                </g>
            </g>
        </g>
    </g>
</svg>