<svg width="528" height="486" viewBox="0 0 528 486" xmlns="http://www.w3.org/2000/svg" xmlns:xlink="http://www.w3.org/1999/xlink"><title>Group 6</title><defs><linearGradient x1="25.566%" y1="10.528%" x2="96.066%" y2="96.448%" id="a"><stop stop-color="#4277FF" offset="0%"/><stop stop-color="#001A3E" offset="100%"/></linearGradient><path d="M0 0h203.701c5.523 0 10 4.477 10 10v261.19c0 5.522-4.477 10-10 10H0V0z" id="b"/><path id="d" d="M0 0h71.676v130.694H0z"/><filter x="-8.4%" y="-3.8%" width="119.5%" height="110.7%" filterUnits="objectBoundingBox" id="e"><feOffset dx="1" dy="2" in="SourceAlpha" result="shadowOffsetOuter1"/><feGaussianBlur stdDeviation="2" in="shadowOffsetOuter1" result="shadowBlurOuter1"/><feComposite in="shadowBlurOuter1" in2="SourceAlpha" operator="out" result="shadowBlurOuter1"/><feColorMatrix values="0 0 0 0 0.692920918 0 0 0 0 0.692920918 0 0 0 0 0.692920918 0 0 0 0.5 0" in="shadowBlurOuter1"/></filter><path id="g" d="M0 0h43.002v130.694H0z"/></defs><g transform="translate(0 -65)" fill="none" fill-rule="evenodd"><path d="M10.475 0c-27.07 160.186.347 265.313 82.25 315.382 122.856 75.104 11.37 122.24 101.086 189.708 89.716 67.467 353.824 74.076 353.824-73.204V0H10.475z" fill="url(#a)"/><rect fill="#012B65" x="35" y="142" width="449" height="305" rx="15"/><g transform="translate(45.23 155.606)"><path d="M10 0h203.701v281.19H10c-5.523 0-10-4.478-10-10V10C0 4.477 4.477 0 10 0z" fill="#032758"/><path fill="#001A3E" d="M43.802 0h53.093v14.522H43.802z"/><rect fill="#002559" x="54.421" y="5.281" width="31.856" height="3.96" rx="1.98"/><path fill="#001A3E" d="M99.55 0h53.093v14.522H99.55zM155.298 0h53.093v14.522h-53.093zM10 0h31.147v281.19H10c-5.523 0-10-4.478-10-10V10C0 4.477 4.477 0 10 0z"/><rect fill="#002559" x="7.964" y="42.244" width="26.547" height="5.281" rx="2.64"/><rect fill="#002559" x="7.964" y="56.766" width="21.237" height="5.281" rx="2.64"/><rect fill="#002559" x="7.964" y="84.489" width="21.237" height="5.281" rx="2.64"/><rect fill="#002559" x="7.964" y="71.288" width="25.219" height="5.281" rx="2.64"/><path fill="#002559" d="M1.327 21.122h39.82v11.881H1.327z"/><rect fill="#002559" x="110.169" y="5.281" width="25.219" height="3.96" rx="1.98"/><rect fill="#002559" x="163.262" y="5.281" width="35.838" height="3.96" rx="1.98"/><g transform="translate(51.766 31.043)"><rect fill="#7ED321" width="74.331" height="6" rx="3"/><rect fill="#4277FF" y="14.802" width="41.147" height="6" rx="3"/><rect fill="#F5A623" x="47.784" y="14.802" width="86.277" height="6" rx="3"/><rect fill="#4277FF" y="46.485" width="41.147" height="6" rx="3"/><rect fill="#FF623A" x="47.784" y="46.485" width="55.748" height="6" rx="3"/><rect fill="#4277FF" y="30.644" width="53.093" height="6" rx="3"/><rect fill="#F5A623" x="59.73" y="30.644" width="74.331" height="6" rx="3"/></g><g transform="translate(51.766 208.582)"><rect fill="#7ED321" width="96.896" height="6" rx="3"/><rect fill="#F5A623" y="16.802" width="59.73" height="6" rx="3"/><rect fill="#4277FF" x="47.784" y="48.485" width="41.147" height="6" rx="3"/><rect fill="#7ED321" x="96.896" y="48.485" width="41.147" height="6" rx="3"/><rect fill="#F5A623" y="48.485" width="41.147" height="6" rx="3"/><rect fill="#4277FF" x="66.367" y="16.802" width="53.093" height="6" rx="3"/><rect fill="#F5A623" y="32.644" width="74.331" height="6" rx="3"/></g><g transform="translate(51.766 111.892)"><rect fill="#7ED321" width="41.147" height="6" rx="3"/><rect fill="#F5A623" y="15.802" width="59.73" height="6" rx="3"/><rect fill="#F5A623" y="63.327" width="69.022" height="6" rx="3"/><rect fill="#4277FF" x="47.784" y="47.485" width="41.147" height="6" rx="3"/><rect fill="#FF623A" x="96.896" y="47.485" width="41.147" height="6" rx="3"/><rect fill="#F5A623" y="47.485" width="41.147" height="6" rx="3"/><rect fill="#4277FF" y="31.644" width="53.093" height="6" rx="3"/><rect fill="#7ED321" x="59.73" y="31.644" width="74.331" height="6" rx="3"/></g></g><g transform="translate(260.068 153.338)"><mask id="c" fill="#fff"><use xlink:href="#b"/></mask><use fill="#FFF" xlink:href="#b"/><g mask="url(#c)"><g transform="translate(82.295 91.09)"><mask id="f" fill="#fff"><use xlink:href="#d"/></mask><use fill="#000" filter="url(#e)" xlink:href="#d"/><path stroke="#032758" stroke-linejoin="square" fill="#FFF" d="M.5.5h70.676v129.694H.5z"/><g transform="translate(7.964 95.05)" mask="url(#f)"><rect fill="#4277FF" width="55.748" height="10.561" rx="2"/><rect fill="#FFF" opacity=".2" x="13.273" y="3.96" width="30.529" height="2.64" rx="1.32"/><rect fill="#E4EBF3" x="11.946" y="17.162" width="31.856" height="2.64" rx="1.32"/></g><rect stroke="#E4EBF3" fill="#FFF" mask="url(#f)" x="8.464" y="58.586" width="54.748" height="10.881" rx="2"/><rect stroke="#E4EBF3" fill="#FFF" mask="url(#f)" x="8.464" y="77.068" width="54.748" height="10.881" rx="2"/><path fill="#E4EBF3" mask="url(#f)" d="M1.327 1.32h69.022v50.165H1.327z"/><path d="M32.603 21.7c.387.385.58.852.58 1.402 0 .55-.193 1.018-.58 1.403a1.925 1.925 0 0 1-1.41.578 1.925 1.925 0 0 1-1.41-.578 1.904 1.904 0 0 1-.582-1.403c0-.55.194-1.017.581-1.402a1.925 1.925 0 0 1 1.41-.578c.553 0 1.024.193 1.41.578zm11.2 5.363v4.62H29.2v-1.98l3.319-3.3 1.659 1.65 5.31-5.28 4.313 4.29zm.995-7.26H28.206a.32.32 0 0 0-.233.097.316.316 0 0 0-.099.232v12.541c0 .09.033.167.099.232a.32.32 0 0 0 .233.098h16.592a.32.32 0 0 0 .233-.098.316.316 0 0 0 .098-.232v-12.54a.316.316 0 0 0-.098-.233.32.32 0 0 0-.233-.098zm1.659.33v12.54c0 .454-.163.843-.488 1.166a1.602 1.602 0 0 1-1.171.485H28.206c-.456 0-.847-.162-1.172-.485a1.585 1.585 0 0 1-.487-1.166v-12.54c0-.455.162-.843.487-1.166a1.602 1.602 0 0 1 1.172-.485h16.592c.456 0 .846.162 1.171.485.325.323.488.711.488 1.165z" fill="#FFF" mask="url(#f)"/><g mask="url(#f)" fill="#FFF"><g transform="translate(58.403 5.28)"><rect width="9.291" height="1.32" rx=".66"/><rect y="2.64" width="9.291" height="1.32" rx=".66"/></g></g></g><g stroke="#8294AC" fill="#FFF"><path d="M81.468 156.276h2.982v2.96h-2.982zM117.306 219.643h2.982v2.96h-2.982zM151.817 219.643h2.982v2.96h-2.982zM81.468 219.643h2.982v2.96h-2.982zM151.817 156.276h2.982v2.96h-2.982zM115.979 90.27h2.982v2.96h-2.982zM151.817 90.27h2.982v2.96h-2.982zM81.468 90.27h2.982v2.96h-2.982z"/></g></g><g transform="translate(169.9 91.09)" mask="url(#c)"><mask id="h" fill="#fff"><use xlink:href="#g"/></mask><use fill="#FFF" xlink:href="#g"/><g mask="url(#h)"><path d="M9.31 18.482h33.51v56.766H9.31a4 4 0 0 1-4-4V22.482a4 4 0 0 1 4-4z" fill="#E4EBF3"/><path d="M5.81 63.867v7.38a3.5 3.5 0 0 0 3.5 3.5h33.01v-10.88H5.81z" stroke="#E4EBF3" fill="#FFF"/><path d="M25.966 40.182c.387.385.58.852.58 1.402 0 .55-.193 1.018-.58 1.403a1.925 1.925 0 0 1-1.41.578 1.925 1.925 0 0 1-1.41-.578 1.904 1.904 0 0 1-.581-1.403c0-.55.193-1.017.58-1.402a1.925 1.925 0 0 1 1.41-.578c.554 0 1.024.193 1.411.578zm11.2 5.363v4.62H22.564v-1.98l3.318-3.3 1.66 1.65 5.309-5.28 4.313 4.29zm.995-7.261H21.569a.32.32 0 0 0-.233.098.316.316 0 0 0-.099.232v12.541c0 .09.033.167.099.232a.32.32 0 0 0 .233.098h16.592a.32.32 0 0 0 .233-.098.316.316 0 0 0 .099-.232v-12.54a.316.316 0 0 0-.099-.233.32.32 0 0 0-.233-.098zm1.66.33v12.541c0 .454-.163.843-.488 1.166a1.602 1.602 0 0 1-1.172.485H21.569c-.456 0-.847-.162-1.172-.485a1.585 1.585 0 0 1-.487-1.166v-12.54c0-.455.163-.843.487-1.166a1.602 1.602 0 0 1 1.172-.485h16.592c.456 0 .847.161 1.172.485.325.323.487.711.487 1.165z" fill="#FFF"/></g><g mask="url(#h)"><path d="M9.31 79.208h33.51v55.446H9.31a4 4 0 0 1-4-4V83.208a4 4 0 0 1 4-4z" fill="#E4EBF3"/><path d="M5.81 123.273v7.381a3.5 3.5 0 0 0 3.5 3.5h33.01v-10.881H5.81z" stroke="#E4EBF3" fill="#FFF"/><path d="M25.966 99.588c.387.385.58.853.58 1.403s-.193 1.017-.58 1.402a1.925 1.925 0 0 1-1.41.578 1.925 1.925 0 0 1-1.41-.578 1.904 1.904 0 0 1-.581-1.402c0-.55.193-1.018.58-1.403a1.925 1.925 0 0 1 1.41-.578c.554 0 1.024.193 1.411.578zm11.2 5.363v4.62H22.564v-1.98l3.318-3.3 1.66 1.65 5.309-5.28 4.313 4.29zm.995-7.26H21.569a.32.32 0 0 0-.233.097.316.316 0 0 0-.099.232v12.542c0 .089.033.166.099.232a.32.32 0 0 0 .233.098h16.592a.32.32 0 0 0 .233-.098.316.316 0 0 0 .099-.232V98.02a.316.316 0 0 0-.099-.232.32.32 0 0 0-.233-.098zm1.66.33v12.54c0 .454-.163.843-.488 1.166a1.602 1.602 0 0 1-1.172.485H21.569c-.456 0-.847-.162-1.172-.485a1.585 1.585 0 0 1-.487-1.165V98.02c0-.453.163-.842.487-1.165a1.602 1.602 0 0 1 1.172-.485h16.592c.456 0 .847.162 1.172.485.325.323.487.712.487 1.165z" fill="#FFF"/></g><path fill="#E4EBF3" mask="url(#h)" d="M1.327 1.32h41.865v11.881H1.327z"/></g><g transform="translate(-1.327 30.363)" mask="url(#c)"><path fill="#E4EBF3" d="M1.327 0h61.058v250.826H1.327z"/><path fill="#F1F8FF" d="M1.327 1.32h61.058v13.201H1.327z"/><path fill="#4277FF" d="M0 30.363h62.385v13.201H0z"/><rect fill="#FFF" x="15.928" y="35.644" width="39.82" height="2.64" rx="1.32"/><rect fill="#AAB9C8" x="14.601" y="21.122" width="34.511" height="2.64" rx="1.32"/><rect fill="#AAB9C8" x="15.928" y="50.165" width="30.529" height="2.64" rx="1.32"/><rect fill="#AAB9C8" x="15.928" y="60.726" width="37.165" height="2.64" rx="1.32"/><rect fill="#AAB9C8" x="6.637" y="6.601" width="42.475" height="2.64" rx="1.32"/></g><g mask="url(#c)"><path d="M0 0h203.701c5.523 0 10 4.477 10 10v20.363H0V0z" fill="#D9E2EB"/><rect stroke="#AAB9C8" fill="#FFF" x="7.137" y="8.421" width="13.601" height="13.522" rx="3"/><rect stroke="#AAB9C8" fill="#3C6FEE" opacity=".396" x="33.683" y="8.421" width="13.601" height="13.522" rx="3"/><rect stroke="#AAB9C8" fill="#FFF" opacity=".396" x="53.593" y="8.421" width="13.601" height="13.522" rx="3"/><rect stroke="#AAB9C8" fill="#B8E986" opacity=".396" x="93.414" y="8.421" width="13.601" height="13.522" rx="3"/><rect stroke="#AAB9C8" fill="#B8E986" opacity=".396" x="115.978" y="8.421" width="13.601" height="13.522" rx="3"/><rect stroke="#AAB9C8" fill="#B8E986" opacity=".396" x="138.543" y="8.421" width="13.601" height="13.522" rx="3"/><rect fill="#F5A623" opacity=".396" x="168.572" y="7.921" width="14.601" height="14.522" rx="3"/><rect stroke="#AAB9C8" fill="#FFF" opacity=".396" x="191.637" y="8.421" width="13.601" height="13.522" rx="3"/></g></g></g></svg>