<?xml version="1.0" encoding="UTF-8"?>
<svg width="528px" height="486px" viewBox="0 0 528 486" version="1.1" xmlns="http://www.w3.org/2000/svg" xmlns:xlink="http://www.w3.org/1999/xlink">
    <!-- Generator: Sketch 50 (54983) - http://www.bohemiancoding.com/sketch -->
    <title>Group 6</title>
    <desc>Created with Sketch.</desc>
    <defs>
        <linearGradient x1="25.5661603%" y1="10.5283748%" x2="96.0663928%" y2="96.4484901%" id="linearGradient-1">
            <stop stop-color="#4277FF" offset="0%"></stop>
            <stop stop-color="#001A3E" offset="100%"></stop>
        </linearGradient>
        <path d="M0,0 L203.701266,-1.77635684e-15 C209.224113,-2.79088747e-15 213.701266,4.4771525 213.701266,10 L213.701266,271.189591 C213.701266,276.712439 209.224113,281.189591 203.701266,281.189591 L0,281.189591 L0,0 Z" id="path-2"></path>
        <rect id="path-4" x="0" y="0" width="71.676201" height="130.693754"></rect>
        <filter x="-8.4%" y="-3.8%" width="119.5%" height="110.7%" filterUnits="objectBoundingBox" id="filter-6">
            <feOffset dx="1" dy="2" in="SourceAlpha" result="shadowOffsetOuter1"></feOffset>
            <feGaussianBlur stdDeviation="2" in="shadowOffsetOuter1" result="shadowBlurOuter1"></feGaussianBlur>
            <feComposite in="shadowBlurOuter1" in2="SourceAlpha" operator="out" result="shadowBlurOuter1"></feComposite>
            <feColorMatrix values="0 0 0 0 0.692920918   0 0 0 0 0.692920918   0 0 0 0 0.692920918  0 0 0 0.5 0" type="matrix" in="shadowBlurOuter1"></feColorMatrix>
        </filter>
        <rect id="path-7" x="0" y="0" width="43.0016983" height="130.693754"></rect>
    </defs>
    <g id="Page-1" stroke="none" stroke-width="1" fill="none" fill-rule="evenodd">
        <g id="Desktop" transform="translate(-496.000000, 0.000000)">
            <g id="Group-6" transform="translate(496.000000, -65.000000)">
                <g id="Group-5">
                    <path d="M10.4749068,0 C-16.5950694,160.185668 10.8218351,265.313099 92.7256203,315.382296 C215.581298,390.48609 104.095297,437.622456 193.81095,505.089965 C283.526603,572.557474 547.634728,579.165655 547.634728,431.88593 C547.634728,333.699446 547.634728,189.73747 547.634728,0 L10.4749068,0 Z" id="Path-3" fill="url(#linearGradient-1)"></path>
                    <rect id="Rectangle" fill="#012B65" x="35" y="142" width="449" height="305" rx="15"></rect>
                    <g id="Left-Screen" transform="translate(45.230380, 155.605948)">
                        <path d="M10,0 L213.701266,0 L213.701266,281.189591 L10,281.189591 C4.4771525,281.189591 6.76353751e-16,276.712439 0,271.189591 L0,10 C-6.76353751e-16,4.4771525 4.4771525,1.01453063e-15 10,0 Z" id="Rectangle" fill="#032758"></path>
                        <rect id="Rectangle-2" fill="#001A3E" x="43.8021228" y="0" width="53.0934822" height="14.5215282"></rect>
                        <rect id="Rectangle-4" fill="#002559" x="54.4208192" y="5.2805557" width="31.8560893" height="3.96041678" rx="1.98020839"></rect>
                        <rect id="Rectangle-2" fill="#001A3E" x="99.5502791" y="0" width="53.0934822" height="14.5215282"></rect>
                        <rect id="Rectangle-2" fill="#001A3E" x="155.298435" y="0" width="53.0934822" height="14.5215282"></rect>
                        <path d="M10,0 L41.1474487,0 L41.1474487,281.189591 L10,281.189591 C4.4771525,281.189591 3.25606345e-14,276.712439 0,271.189591 L0,10 C-6.76353751e-16,4.4771525 4.4771525,-7.61826213e-16 10,-1.77635684e-15 Z" id="Rectangle" fill="#001A3E"></path>
                        <rect id="Rectangle-6" fill="#002559" x="7.96402233" y="42.2444456" width="26.5467411" height="5.2805557" rx="2.64027785"></rect>
                        <rect id="Rectangle-6" fill="#002559" x="7.96402233" y="56.7659738" width="21.2373929" height="5.2805557" rx="2.64027785"></rect>
                        <rect id="Rectangle-6" fill="#002559" x="7.96402233" y="84.4888912" width="21.2373929" height="5.2805557" rx="2.64027785"></rect>
                        <rect id="Rectangle-6" fill="#002559" x="7.96402233" y="71.287502" width="25.219404" height="5.2805557" rx="2.64027785"></rect>
                        <rect id="Rectangle-5" fill="#002559" x="1.32733705" y="21.1222228" width="39.8201116" height="11.8812503"></rect>
                        <rect id="Rectangle-4" fill="#002559" x="110.168976" y="5.2805557" width="25.219404" height="3.96041678" rx="1.98020839"></rect>
                        <rect id="Rectangle-4" fill="#002559" x="163.262458" y="5.2805557" width="35.8381005" height="3.96041678" rx="1.98020839"></rect>
                        <g id="Code-Group" transform="translate(51.766145, 31.043056)">
                            <rect id="Rectangle-3" fill="#7ED321" x="0" y="0" width="74.3308751" height="6" rx="3"></rect>
                            <rect id="Rectangle-3" fill="#4277FF" x="0" y="14.8020839" width="41.1474487" height="6" rx="3"></rect>
                            <rect id="Rectangle-3" fill="#F5A623" x="47.784134" y="14.8020839" width="86.2769086" height="6" rx="3"></rect>
                            <rect id="Rectangle-3" fill="#4277FF" x="0" y="46.4854181" width="41.1474487" height="6" rx="3"></rect>
                            <rect id="Rectangle-3" fill="#FF623A" x="47.784134" y="46.4854181" width="55.7481563" height="6" rx="3"></rect>
                            <rect id="Rectangle-3" fill="#4277FF" x="0" y="30.643751" width="53.0934822" height="6" rx="3"></rect>
                            <rect id="Rectangle-3" fill="#F5A623" x="59.7301675" y="30.643751" width="74.3308751" height="6" rx="3"></rect>
                        </g>
                        <g id="Code-Group-2" transform="translate(51.766145, 208.581950)">
                            <rect id="Rectangle-3" fill="#7ED321" x="0" y="0" width="96.895605" height="6" rx="3"></rect>
                            <rect id="Rectangle-3" fill="#F5A623" x="0" y="16.8020839" width="59.7301675" height="6" rx="3"></rect>
                            <rect id="Rectangle-3" fill="#4277FF" x="47.784134" y="48.4854181" width="41.1474487" height="6" rx="3"></rect>
                            <rect id="Rectangle-3" fill="#7ED321" x="96.895605" y="48.4854181" width="41.1474487" height="6" rx="3"></rect>
                            <rect id="Rectangle-3" fill="#F5A623" x="0" y="48.4854181" width="41.1474487" height="6" rx="3"></rect>
                            <rect id="Rectangle-3" fill="#4277FF" x="66.3668527" y="16.8020839" width="53.0934822" height="6" rx="3"></rect>
                            <rect id="Rectangle-3" fill="#F5A623" x="0" y="32.643751" width="74.3308751" height="6" rx="3"></rect>
                        </g>
                        <g id="Code-Group-2" transform="translate(51.766145, 111.891670)">
                            <rect id="Rectangle-3" fill="#7ED321" x="0" y="0" width="41.1474487" height="6" rx="3"></rect>
                            <rect id="Rectangle-3" fill="#F5A623" x="0" y="15.8020839" width="59.7301675" height="6" rx="3"></rect>
                            <rect id="Rectangle-3" fill="#F5A623" x="0" y="63.3270852" width="69.0215268" height="6" rx="3"></rect>
                            <rect id="Rectangle-3" fill="#4277FF" x="47.784134" y="47.4854181" width="41.1474487" height="6" rx="3"></rect>
                            <rect id="Rectangle-3" fill="#FF623A" x="96.895605" y="47.4854181" width="41.1474487" height="6" rx="3"></rect>
                            <rect id="Rectangle-3" fill="#F5A623" x="0" y="47.4854181" width="41.1474487" height="6" rx="3"></rect>
                            <rect id="Rectangle-3" fill="#4277FF" x="0" y="31.643751" width="53.0934822" height="6" rx="3"></rect>
                            <rect id="Rectangle-3" fill="#7ED321" x="59.7301675" y="31.643751" width="74.3308751" height="6" rx="3"></rect>
                        </g>
                    </g>
                    <g id="Right-Screen" transform="translate(260.068354, 153.338290)">
                        <mask id="mask-3" fill="white">
                            <use xlink:href="#path-2"></use>
                        </mask>
                        <use id="Rectangle" fill="#FFFFFF" xlink:href="#path-2"></use>
                        <g id="Mobile-Screen-+-Highlighted" mask="url(#mask-3)">
                            <g transform="translate(80.967560, 89.769447)">
                                <g id="Mobile-Screen" transform="translate(1.327337, 1.320139)">
                                    <mask id="mask-5" fill="white">
                                        <use xlink:href="#path-4"></use>
                                    </mask>
                                    <g id="Rectangle-12">
                                        <use fill="black" fill-opacity="1" filter="url(#filter-6)" xlink:href="#path-4"></use>
                                        <rect stroke="#032758" stroke-width="1" stroke-linejoin="square" fill="#FFFFFF" fill-rule="evenodd" x="0.5" y="0.5" width="70.676201" height="129.693754"></rect>
                                    </g>
                                    <g id="CTA" mask="url(#mask-5)">
                                        <g transform="translate(7.964022, 95.050003)">
                                            <rect id="CTA" fill="#4277FF" x="0" y="0" width="55.7481563" height="10.5611114" rx="2"></rect>
                                            <rect id="Rectangle-10" fill="#FFFFFF" opacity="0.2" x="13.2733705" y="3.96041678" width="30.5287523" height="2.64027785" rx="1.32013893"></rect>
                                            <rect id="Rectangle-17" fill="#E4EBF3" x="11.9460335" y="17.161806" width="31.8560893" height="2.64027785" rx="1.32013893"></rect>
                                        </g>
                                    </g>
                                    <rect id="Rectangle-15" stroke="#E4EBF3" fill="#FFFFFF" mask="url(#mask-5)" x="8.46402233" y="58.5861127" width="54.7481563" height="10.8812503" rx="2"></rect>
                                    <rect id="Rectangle-15" stroke="#E4EBF3" fill="#FFFFFF" mask="url(#mask-5)" x="8.46402233" y="77.0680577" width="54.7481563" height="10.8812503" rx="2"></rect>
                                    <rect id="Rectangle-13" fill="#E4EBF3" mask="url(#mask-5)" x="1.32733705" y="1.32013893" width="69.0215268" height="50.1652792"></rect>
                                    <path d="M32.6027164,21.6997836 C32.9898583,22.084826 33.1834264,22.5523706 33.1834264,23.1024312 C33.1834264,23.6524918 32.9898583,24.1200364 32.6027164,24.5050788 C32.2155745,24.8901212 31.7454807,25.0826396 31.1924208,25.0826396 C30.6393609,25.0826396 30.1692671,24.8901212 29.7821252,24.5050788 C29.3949833,24.1200364 29.2014152,23.6524918 29.2014152,23.1024312 C29.2014152,22.5523706 29.3949833,22.084826 29.7821252,21.6997836 C30.1692671,21.3147411 30.6393609,21.1222228 31.1924208,21.1222228 C31.7454807,21.1222228 32.2155745,21.3147411 32.6027164,21.6997836 Z M43.8021228,27.062848 L43.8021228,31.6833342 L29.2014152,31.6833342 L29.2014152,29.7031258 L32.5197578,26.4027785 L34.1789292,28.0529522 L39.4882774,22.7723965 L43.8021228,27.062848 Z M44.7976256,19.8020839 L28.2059124,19.8020839 C28.1160402,19.8020839 28.0382673,19.8347432 27.9725914,19.9000629 C27.9069156,19.9653826 27.8740782,20.0427338 27.8740782,20.1321186 L27.8740782,32.6734384 C27.8740782,32.7628233 27.9069156,32.8401744 27.9725914,32.9054941 C28.0382673,32.9708138 28.1160402,33.0034731 28.2059124,33.0034731 L44.7976256,33.0034731 C44.8874978,33.0034731 44.9652707,32.9708138 45.0309466,32.9054941 C45.0966224,32.8401744 45.1294599,32.7628233 45.1294599,32.6734384 L45.1294599,20.1321186 C45.1294599,20.0427338 45.0966224,19.9653826 45.0309466,19.9000629 C44.9652707,19.8347432 44.8874978,19.8020839 44.7976256,19.8020839 Z M46.4567969,20.1321186 L46.4567969,32.6734384 C46.4567969,33.1272384 46.294338,33.5157129 45.9694153,33.8388735 C45.6444927,34.1620342 45.2539,34.3236121 44.7976256,34.3236121 L28.2059124,34.3236121 C27.749638,34.3236121 27.3590453,34.1620342 27.0341227,33.8388735 C26.7092,33.5157129 26.5467411,33.1272384 26.5467411,32.6734384 L26.5467411,20.1321186 C26.5467411,19.6783186 26.7092,19.2898441 27.0341227,18.9666835 C27.3590453,18.6435228 27.749638,18.481945 28.2059124,18.481945 L44.7976256,18.481945 C45.2539,18.481945 45.6444927,18.6435228 45.9694153,18.9666835 C46.294338,19.2898441 46.4567969,19.6783186 46.4567969,20.1321186 Z" id="" fill="#FFFFFF" mask="url(#mask-5)"></path>
                                    <g id="Group-3" mask="url(#mask-5)" fill="#FFFFFF">
                                        <g transform="translate(58.402830, 5.280556)" id="Rectangle-14">
                                            <rect x="0" y="0" width="9.29135938" height="1.32013893" rx="0.660069463"></rect>
                                            <rect x="0" y="2.64027785" width="9.29135938" height="1.32013893" rx="0.660069463"></rect>
                                        </g>
                                    </g>
                                </g>
                                <g id="Group-2">
                                    <rect id="Rectangle-16" stroke="#8294AC" fill="#FFFFFF" x="0.5" y="66.5069463" width="2.98201116" height="2.96041678"></rect>
                                    <rect id="Rectangle-16" stroke="#8294AC" fill="#FFFFFF" x="36.3381005" y="129.873615" width="2.98201116" height="2.96041678"></rect>
                                    <rect id="Rectangle-16" stroke="#8294AC" fill="#FFFFFF" x="70.8488639" y="129.873615" width="2.98201116" height="2.96041678"></rect>
                                    <rect id="Rectangle-16" stroke="#8294AC" fill="#FFFFFF" x="0.5" y="129.873615" width="2.98201116" height="2.96041678"></rect>
                                    <rect id="Rectangle-16" stroke="#8294AC" fill="#FFFFFF" x="70.8488639" y="66.5069463" width="2.98201116" height="2.96041678"></rect>
                                    <rect id="Rectangle-16" stroke="#8294AC" fill="#FFFFFF" x="35.0107634" y="0.5" width="2.98201116" height="2.96041678"></rect>
                                    <rect id="Rectangle-16" stroke="#8294AC" fill="#FFFFFF" x="70.8488639" y="0.5" width="2.98201116" height="2.96041678"></rect>
                                    <rect id="Rectangle-16" stroke="#8294AC" fill="#FFFFFF" x="0.5" y="0.5" width="2.98201116" height="2.96041678"></rect>
                                </g>
                            </g>
                        </g>
                        <g id="Mobile-Screen-+-Highlighted" mask="url(#mask-3)">
                            <g transform="translate(169.899143, 91.089586)" id="Mobile-Screen">
                                <g>
                                    <mask id="mask-8" fill="white">
                                        <use xlink:href="#path-7"></use>
                                    </mask>
                                    <use id="Rectangle-12" fill="#FFFFFF" xlink:href="#path-7"></use>
                                    <g id="Group-4" mask="url(#mask-8)">
                                        <g transform="translate(5.309348, 18.481945)">
                                            <path d="M4,0 L37.5113924,0 L37.5113924,56.7659738 L4,56.7659738 C1.790861,56.7659738 4.19476067e-15,54.9751128 0,52.7659738 L0,4 C-2.705415e-16,1.790861 1.790861,4.05812251e-16 4,0 Z" id="Rectangle-18" stroke="none" fill="#E4EBF3"></path>
                                            <path d="M0.5,45.3847235 L0.5,52.7659738 C0.5,54.6989704 2.06700338,56.2659738 4,56.2659738 L37.0113924,56.2659738 L37.0113924,45.3847235 L0.5,45.3847235 Z" id="Rectangle-18" stroke="#E4EBF3" stroke-width="1" fill="#FFFFFF"></path>
                                            <path d="M20.6566829,21.6997836 C21.0438248,22.084826 21.2373929,22.5523706 21.2373929,23.1024312 C21.2373929,23.6524918 21.0438248,24.1200364 20.6566829,24.5050788 C20.269541,24.8901212 19.7994472,25.0826396 19.2463873,25.0826396 C18.6933274,25.0826396 18.2232336,24.8901212 17.8360917,24.5050788 C17.4489498,24.1200364 17.2553817,23.6524918 17.2553817,23.1024312 C17.2553817,22.5523706 17.4489498,22.084826 17.8360917,21.6997836 C18.2232336,21.3147411 18.6933274,21.1222228 19.2463873,21.1222228 C19.7994472,21.1222228 20.269541,21.3147411 20.6566829,21.6997836 Z M31.8560893,27.062848 L31.8560893,31.6833342 L17.2553817,31.6833342 L17.2553817,29.7031258 L20.5737243,26.4027785 L22.2328957,28.0529522 L27.5422439,22.7723965 L31.8560893,27.062848 Z M32.8515921,19.8020839 L16.2598789,19.8020839 C16.1700067,19.8020839 16.0922338,19.8347432 16.026558,19.9000629 C15.9608821,19.9653826 15.9280447,20.0427338 15.9280447,20.1321186 L15.9280447,32.6734384 C15.9280447,32.7628233 15.9608821,32.8401744 16.026558,32.9054941 C16.0922338,32.9708138 16.1700067,33.0034731 16.2598789,33.0034731 L32.8515921,33.0034731 C32.9414643,33.0034731 33.0192372,32.9708138 33.0849131,32.9054941 C33.1505889,32.8401744 33.1834264,32.7628233 33.1834264,32.6734384 L33.1834264,20.1321186 C33.1834264,20.0427338 33.1505889,19.9653826 33.0849131,19.9000629 C33.0192372,19.8347432 32.9414643,19.8020839 32.8515921,19.8020839 Z M34.5107634,20.1321186 L34.5107634,32.6734384 C34.5107634,33.1272384 34.3483045,33.5157129 34.0233818,33.8388735 C33.6984592,34.1620342 33.3078665,34.3236121 32.8515921,34.3236121 L16.2598789,34.3236121 C15.8036045,34.3236121 15.4130119,34.1620342 15.0880892,33.8388735 C14.7631665,33.5157129 14.6007076,33.1272384 14.6007076,32.6734384 L14.6007076,20.1321186 C14.6007076,19.6783186 14.7631665,19.2898441 15.0880892,18.9666835 C15.4130119,18.6435228 15.8036045,18.481945 16.2598789,18.481945 L32.8515921,18.481945 C33.3078665,18.481945 33.6984592,18.6435228 34.0233818,18.9666835 C34.3483045,19.2898441 34.5107634,19.6783186 34.5107634,20.1321186 Z" id="" stroke="none" fill="#FFFFFF"></path>
                                        </g>
                                    </g>
                                    <g id="Group-4" mask="url(#mask-8)">
                                        <g transform="translate(5.309348, 79.208336)">
                                            <path d="M4,0 L37.5113924,0 L37.5113924,55.4458349 L4,55.4458349 C1.790861,55.4458349 4.19476067e-15,53.6549739 0,51.4458349 L0,4 C-2.705415e-16,1.790861 1.790861,4.05812251e-16 4,0 Z" id="Rectangle-18" stroke="none" fill="#E4EBF3"></path>
                                            <path d="M0.5,44.0645845 L0.5,51.4458349 C0.5,53.3788315 2.06700338,54.9458349 4,54.9458349 L37.0113924,54.9458349 L37.0113924,44.0645845 L0.5,44.0645845 Z" id="Rectangle-18" stroke="#E4EBF3" stroke-width="1" fill="#FFFFFF"></path>
                                            <path d="M20.6566829,20.3796447 C21.0438248,20.7646871 21.2373929,21.2322316 21.2373929,21.7822923 C21.2373929,22.3323529 21.0438248,22.7998974 20.6566829,23.1849399 C20.269541,23.5699823 19.7994472,23.7625007 19.2463873,23.7625007 C18.6933274,23.7625007 18.2232336,23.5699823 17.8360917,23.1849399 C17.4489498,22.7998974 17.2553817,22.3323529 17.2553817,21.7822923 C17.2553817,21.2322316 17.4489498,20.7646871 17.8360917,20.3796447 C18.2232336,19.9946022 18.6933274,19.8020839 19.2463873,19.8020839 C19.7994472,19.8020839 20.269541,19.9946022 20.6566829,20.3796447 Z M31.8560893,25.742709 L31.8560893,30.3631953 L17.2553817,30.3631953 L17.2553817,28.3829869 L20.5737243,25.0826396 L22.2328957,26.7328132 L27.5422439,21.4522575 L31.8560893,25.742709 Z M32.8515921,18.481945 L16.2598789,18.481945 C16.1700067,18.481945 16.0922338,18.5146043 16.026558,18.579924 C15.9608821,18.6452437 15.9280447,18.7225948 15.9280447,18.8119797 L15.9280447,31.3532995 C15.9280447,31.4426843 15.9608821,31.5200354 16.026558,31.5853551 C16.0922338,31.6506748 16.1700067,31.6833342 16.2598789,31.6833342 L32.8515921,31.6833342 C32.9414643,31.6833342 33.0192372,31.6506748 33.0849131,31.5853551 C33.1505889,31.5200354 33.1834264,31.4426843 33.1834264,31.3532995 L33.1834264,18.8119797 C33.1834264,18.7225948 33.1505889,18.6452437 33.0849131,18.579924 C33.0192372,18.5146043 32.9414643,18.481945 32.8515921,18.481945 Z M34.5107634,18.8119797 L34.5107634,31.3532995 C34.5107634,31.8070995 34.3483045,32.195574 34.0233818,32.5187346 C33.6984592,32.8418952 33.3078665,33.0034731 32.8515921,33.0034731 L16.2598789,33.0034731 C15.8036045,33.0034731 15.4130119,32.8418952 15.0880892,32.5187346 C14.7631665,32.195574 14.6007076,31.8070995 14.6007076,31.3532995 L14.6007076,18.8119797 C14.6007076,18.3581797 14.7631665,17.9697052 15.0880892,17.6465445 C15.4130119,17.3233839 15.8036045,17.161806 16.2598789,17.161806 L32.8515921,17.161806 C33.3078665,17.161806 33.6984592,17.3233839 34.0233818,17.6465445 C34.3483045,17.9697052 34.5107634,18.3581797 34.5107634,18.8119797 Z" id="" stroke="none" fill="#FFFFFF"></path>
                                        </g>
                                    </g>
                                    <rect id="Rectangle-13" fill="#E4EBF3" mask="url(#mask-8)" x="1.32733705" y="1.32013893" width="41.8649894" height="11.8812503"></rect>
                                </g>
                            </g>
                        </g>
                        <g id="Left-Layers" mask="url(#mask-3)">
                            <g transform="translate(-1.327337, 30.363195)">
                                <rect id="Rectangle-7" fill="#E4EBF3" x="1.32733705" y="0" width="61.0575045" height="250.826396"></rect>
                                <rect id="Rectangle-9" fill="#F1F8FF" x="1.32733705" y="1.32013893" width="61.0575045" height="13.2013893"></rect>
                                <rect id="Rectangle-9" fill="#4277FF" x="0" y="30.3631953" width="62.3848416" height="13.2013893"></rect>
                                <rect id="Rectangle-10" fill="#FFFFFF" x="15.9280447" y="35.643751" width="39.8201116" height="2.64027785" rx="1.32013893"></rect>
                                <rect id="Rectangle-10" fill="#AAB9C8" x="14.6007076" y="21.1222228" width="34.5107634" height="2.64027785" rx="1.32013893"></rect>
                                <rect id="Rectangle-10" fill="#AAB9C8" x="15.9280447" y="50.1652792" width="30.5287523" height="2.64027785" rx="1.32013893"></rect>
                                <rect id="Rectangle-10" fill="#AAB9C8" x="15.9280447" y="60.7263906" width="37.1654375" height="2.64027785" rx="1.32013893"></rect>
                                <rect id="Rectangle-10" fill="#AAB9C8" x="6.63668527" y="6.60069463" width="42.4747858" height="2.64027785" rx="1.32013893"></rect>
                            </g>
                        </g>
                        <g id="Top-bar---Sketch" mask="url(#mask-3)">
                            <path d="M0,0 L203.701266,0 C209.224113,-1.01453063e-15 213.701266,4.4771525 213.701266,10 L213.701266,30.3631953 L0,30.3631953 L0,0 Z" id="Rectangle-8" fill="#D9E2EB"></path>
                            <rect id="Rectangle-11" stroke="#AAB9C8" fill="#FFFFFF" x="7.13668527" y="8.42083355" width="13.6007076" height="13.5215282" rx="3"></rect>
                            <rect id="Rectangle-11" stroke="#AAB9C8" fill="#3C6FEE" opacity="0.395889946" x="33.6834264" y="8.42083355" width="13.6007076" height="13.5215282" rx="3"></rect>
                            <rect id="Rectangle-11" stroke="#AAB9C8" fill="#FFFFFF" opacity="0.395889946" x="53.5934822" y="8.42083355" width="13.6007076" height="13.5215282" rx="3"></rect>
                            <rect id="Rectangle-11" stroke="#AAB9C8" fill="#B8E986" opacity="0.395889946" x="93.4135938" y="8.42083355" width="13.6007076" height="13.5215282" rx="3"></rect>
                            <rect id="Rectangle-11" stroke="#AAB9C8" fill="#B8E986" opacity="0.395889946" x="115.978324" y="8.42083355" width="13.6007076" height="13.5215282" rx="3"></rect>
                            <rect id="Rectangle-11" stroke="#AAB9C8" fill="#B8E986" opacity="0.395889946" x="138.543054" y="8.42083355" width="13.6007076" height="13.5215282" rx="3"></rect>
                            <rect id="Rectangle-11" fill="#F5A623" opacity="0.395889946" x="168.571806" y="7.92083355" width="14.6007076" height="14.5215282" rx="3"></rect>
                            <rect id="Rectangle-11" stroke="#AAB9C8" fill="#FFFFFF" opacity="0.395889946" x="191.636536" y="8.42083355" width="13.6007076" height="13.5215282" rx="3"></rect>
                        </g>
                    </g>
                </g>
            </g>
        </g>
    </g>
</svg>